<svg width="35" height="29" viewBox="0 0 35 29" fill="none" xmlns="http://www.w3.org/2000/svg">
<path fill-rule="evenodd" clip-rule="evenodd" d="M31.9565 29H3.04348C1.36272 29 0 27.6332 0 25.9474V3.05263C0 1.36682 1.36272 0 3.04348 0H31.9565C33.6373 0 35 1.36682 35 3.05263V25.9474C35 27.6332 33.6373 29 31.9565 29ZM33.4783 3.05263C33.4783 2.21011 32.7965 1.52632 31.9565 1.52632H3.04348C2.20348 1.52632 1.52174 2.21011 1.52174 3.05263V7.63158H33.4783V3.05263ZM33.4783 9.15789H1.52174V25.9474C1.52174 26.7899 2.20348 27.4737 3.04348 27.4737H31.9565C32.7965 27.4737 33.4783 26.7899 33.4783 25.9474V9.15789ZM30.4348 19.8421H28.913C28.493 19.8421 28.1522 19.501 28.1522 19.0789V17.5526C28.1522 17.1314 28.493 16.7895 28.913 16.7895H30.4348C30.8555 16.7895 31.1957 17.1314 31.1957 17.5526V19.0789C31.1957 19.501 30.8555 19.8421 30.4348 19.8421ZM30.4348 14.5H28.913C28.493 14.5 28.1522 14.1589 28.1522 13.7368V12.2105C28.1522 11.7885 28.493 11.4474 28.913 11.4474H30.4348C30.8555 11.4474 31.1957 11.7885 31.1957 12.2105V13.7368C31.1957 14.1589 30.8555 14.5 30.4348 14.5ZM24.3478 19.8421H22.8261C22.4061 19.8421 22.0652 19.501 22.0652 19.0789V17.5526C22.0652 17.1314 22.4061 16.7895 22.8261 16.7895H24.3478C24.7686 16.7895 25.1087 17.1314 25.1087 17.5526V19.0789C25.1087 19.501 24.7686 19.8421 24.3478 19.8421ZM24.3478 14.5H22.8261C22.4061 14.5 22.0652 14.1589 22.0652 13.7368V12.2105C22.0652 11.7885 22.4061 11.4474 22.8261 11.4474H24.3478C24.7686 11.4474 25.1087 11.7885 25.1087 12.2105V13.7368C25.1087 14.1589 24.7686 14.5 24.3478 14.5ZM18.2609 19.8421H16.7391C16.3184 19.8421 15.9783 19.501 15.9783 19.0789V17.5526C15.9783 17.1314 16.3184 16.7895 16.7391 16.7895H18.2609C18.6816 16.7895 19.0217 17.1314 19.0217 17.5526V19.0789C19.0217 19.501 18.6816 19.8421 18.2609 19.8421ZM18.2609 14.5H16.7391C16.3184 14.5 15.9783 14.1589 15.9783 13.7368V12.2105C15.9783 11.7885 16.3184 11.4474 16.7391 11.4474H18.2609C18.6816 11.4474 19.0217 11.7885 19.0217 12.2105V13.7368C19.0217 14.1589 18.6816 14.5 18.2609 14.5ZM12.1739 25.1842H10.6522C10.2314 25.1842 9.8913 24.8431 9.8913 24.4211V22.8947C9.8913 22.4727 10.2314 22.1316 10.6522 22.1316H12.1739C12.5947 22.1316 12.9348 22.4727 12.9348 22.8947V24.4211C12.9348 24.8431 12.5947 25.1842 12.1739 25.1842ZM12.1739 19.8421H10.6522C10.2314 19.8421 9.8913 19.501 9.8913 19.0789V17.5526C9.8913 17.1314 10.2314 16.7895 10.6522 16.7895H12.1739C12.5947 16.7895 12.9348 17.1314 12.9348 17.5526V19.0789C12.9348 19.501 12.5947 19.8421 12.1739 19.8421ZM12.1739 14.5H10.6522C10.2314 14.5 9.8913 14.1589 9.8913 13.7368V12.2105C9.8913 11.7885 10.2314 11.4474 10.6522 11.4474H12.1739C12.5947 11.4474 12.9348 11.7885 12.9348 12.2105V13.7368C12.9348 14.1589 12.5947 14.5 12.1739 14.5ZM6.08696 25.1842H4.56522C4.14446 25.1842 3.80435 24.8431 3.80435 24.4211V22.8947C3.80435 22.4727 4.14446 22.1316 4.56522 22.1316H6.08696C6.50772 22.1316 6.84783 22.4727 6.84783 22.8947V24.4211C6.84783 24.8431 6.50772 25.1842 6.08696 25.1842ZM6.08696 19.8421H4.56522C4.14446 19.8421 3.80435 19.501 3.80435 19.0789V17.5526C3.80435 17.1314 4.14446 16.7895 4.56522 16.7895H6.08696C6.50772 16.7895 6.84783 17.1314 6.84783 17.5526V19.0789C6.84783 19.501 6.50772 19.8421 6.08696 19.8421ZM16.7391 22.1316H18.2609C18.6816 22.1316 19.0217 22.4727 19.0217 22.8947V24.4211C19.0217 24.8431 18.6816 25.1842 18.2609 25.1842H16.7391C16.3184 25.1842 15.9783 24.8431 15.9783 24.4211V22.8947C15.9783 22.4727 16.3184 22.1316 16.7391 22.1316Z" fill="#A6CCF6"/>
</svg>
