<svg width="39" height="35" viewBox="0 0 39 35" fill="none" xmlns="http://www.w3.org/2000/svg">
<path d="M20.3057 2.63281C21.52 3.67924 23.2073 5.13256 25.1006 6.75879C28.8864 10.0105 33.499 13.9587 36.7939 16.7344L36.8047 16.7432L36.8164 16.752C37.0065 16.9047 37.083 17.079 37.083 17.25C37.083 17.6195 36.7864 17.9168 36.417 17.917H31.333V32.583C31.333 32.9525 31.0364 33.2498 30.667 33.25H24.917C24.5482 33.25 24.25 32.9515 24.25 32.583V23.667H14.083V32.583C14.083 32.9514 13.7856 33.2498 13.417 33.25H7.66699C7.29743 33.25 7 32.9526 7 32.583V17.917H1.91699C1.54743 17.917 1.25 17.6196 1.25 17.25C1.25 17.0706 1.33563 16.8768 1.5166 16.71C4.83357 13.9346 9.44293 10.0014 13.2236 6.75977C15.1206 5.13327 16.8108 3.67936 18.0264 2.63281C18.4756 2.24601 18.8598 1.91434 19.166 1.65039C19.4721 1.91439 19.8566 2.24586 20.3057 2.63281Z" fill="white" stroke="#A6CCF6" stroke-width="2.5"/>
</svg>
