<svg width="31" height="29" viewBox="0 0 31 29" fill="none" xmlns="http://www.w3.org/2000/svg">
<path d="M1.1875 28.5015C1.03173 28.5055 0.877182 28.473 0.73625 28.4065C0.51939 28.3174 0.333752 28.1661 0.202731 27.9717C0.0717105 27.7773 0.00117026 27.5484 0 27.314V5.67775C0.0169622 4.91512 0.184018 4.16331 0.491622 3.46526C0.799227 2.76722 1.24135 2.13662 1.79274 1.60949C2.34413 1.08236 2.99397 0.669042 3.70514 0.393138C4.41632 0.117234 5.17488 -0.0158461 5.9375 0.00150196H24.9375C25.7001 -0.0158461 26.4587 0.117234 27.1699 0.393138C27.881 0.669042 28.5309 1.08236 29.0823 1.60949C29.6336 2.13662 30.0758 2.76722 30.3834 3.46526C30.691 4.16331 30.858 4.91512 30.875 5.67775V16.8878C30.858 17.6504 30.691 18.4022 30.3834 19.1002C30.0758 19.7983 29.6336 20.4289 29.0823 20.956C28.5309 21.4831 27.881 21.8965 27.1699 22.1724C26.4587 22.4483 25.7001 22.5814 24.9375 22.564H7.61187L2.03063 28.1571C1.91966 28.2672 1.78807 28.3543 1.64339 28.4134C1.49871 28.4725 1.34378 28.5024 1.1875 28.5015ZM5.9375 2.3765C5.02798 2.34436 4.14271 2.67356 3.47517 3.29215C2.80763 3.91074 2.41209 4.76842 2.375 5.67775V24.4521L6.28188 20.5334C6.39284 20.4233 6.52443 20.3362 6.66911 20.2771C6.81379 20.2181 6.96872 20.1881 7.125 20.189H24.9375C25.847 20.2211 26.7323 19.8919 27.3998 19.2734C28.0674 18.6548 28.4629 17.7971 28.5 16.8878V5.67775C28.4629 4.76842 28.0674 3.91074 27.3998 3.29215C26.7323 2.67356 25.847 2.34436 24.9375 2.3765H5.9375Z" fill="#A6CCF6"/>
<path d="M15.4375 13.0641C16.4213 13.0641 17.2188 12.2666 17.2188 11.2828C17.2188 10.2991 16.4213 9.50159 15.4375 9.50159C14.4538 9.50159 13.6563 10.2991 13.6563 11.2828C13.6563 12.2666 14.4538 13.0641 15.4375 13.0641Z" fill="#A6CCF6"/>
<path d="M21.9688 13.0641C22.9526 13.0641 23.7501 12.2666 23.7501 11.2828C23.7501 10.2991 22.9526 9.50159 21.9688 9.50159C20.985 9.50159 20.1876 10.2991 20.1876 11.2828C20.1876 12.2666 20.985 13.0641 21.9688 13.0641Z" fill="#A6CCF6"/>
<path d="M8.90627 13.0641C9.89002 13.0641 10.6875 12.2666 10.6875 11.2828C10.6875 10.2991 9.89002 9.50159 8.90627 9.50159C7.92251 9.50159 7.12502 10.2991 7.12502 11.2828C7.12502 12.2666 7.92251 13.0641 8.90627 13.0641Z" fill="#A6CCF6"/>
</svg>
