<svg width="45" height="45" viewBox="0 0 45 45" fill="none" xmlns="http://www.w3.org/2000/svg">
<circle cx="22.5" cy="22.5" r="22.5" fill="#A6CCF6"/>
<path d="M31.7819 25.1241L31.3102 24.7445C31.1834 24.643 31.081 24.5143 31.0106 24.3679C30.9402 24.2215 30.9037 24.0612 30.9035 23.8988V19.518C30.9029 17.6355 30.2492 15.8114 29.0538 14.357C27.8585 12.9026 26.1956 11.908 24.3487 11.5427C24.2587 11.1935 24.0551 10.8841 23.77 10.6631C23.4849 10.4422 23.1344 10.3223 22.7737 10.3223C22.413 10.3223 22.0626 10.4422 21.7775 10.6631C21.4924 10.8841 21.2888 11.1935 21.1987 11.5427C19.3509 11.9069 17.6867 12.901 16.4903 14.3555C15.2939 15.81 14.6394 17.6347 14.6385 19.518V23.8988C14.6384 24.0612 14.6018 24.2215 14.5314 24.3679C14.461 24.5143 14.3587 24.643 14.2319 24.7445L13.7602 25.1241C13.1905 25.5795 12.7302 26.1568 12.413 26.8136C12.0959 27.4704 11.93 28.1899 11.9276 28.9192V29.8192C11.9276 30.3944 12.1561 30.946 12.5628 31.3527C12.9695 31.7594 13.5211 31.9879 14.0963 31.9879H18.5746C18.819 32.9137 19.363 33.7327 20.1215 34.317C20.8801 34.9013 21.8108 35.2182 22.7683 35.2182C23.7258 35.2182 24.6565 34.9013 25.4151 34.317C26.1737 33.7327 26.7176 32.9137 26.962 31.9879H31.4457C32.0209 31.9879 32.5725 31.7594 32.9792 31.3527C33.3859 30.946 33.6144 30.3944 33.6144 29.8192V28.9301C33.6136 28.1989 33.4485 27.4773 33.1313 26.8185C32.8141 26.1597 32.353 25.5806 31.7819 25.1241ZM22.771 33.0723C22.3926 33.07 22.0213 32.9687 21.6941 32.7785C21.3669 32.5882 21.0952 32.3157 20.906 31.9879H24.6415C24.4518 32.3165 24.1792 32.5895 23.851 32.7798C23.5228 32.9701 23.1504 33.0709 22.771 33.0723ZM31.4457 29.8192H14.0963V28.9301C14.0969 28.5238 14.1888 28.1228 14.3652 27.7568C14.5417 27.3908 14.7981 27.0692 15.1156 26.8156L15.5873 26.4361C15.9677 26.1316 16.2748 25.7454 16.4859 25.3062C16.6971 24.8671 16.8069 24.3861 16.8072 23.8988V19.518C16.8072 17.9363 17.4355 16.4194 18.5539 15.301C19.6724 14.1825 21.1893 13.5542 22.771 13.5542C24.3527 13.5542 25.8697 14.1825 26.9881 15.301C28.1065 16.4194 28.7349 17.9363 28.7349 19.518V23.8988C28.7344 24.387 28.8438 24.869 29.0549 25.3092C29.2661 25.7494 29.5736 26.1364 29.9548 26.4415L30.4264 26.8211C30.7432 27.074 30.9992 27.3948 31.1756 27.7598C31.352 28.1248 31.4443 28.5247 31.4457 28.9301V29.8192Z" fill="white"/>
</svg>
