<svg width="29" height="29" viewBox="0 0 29 29" fill="none" xmlns="http://www.w3.org/2000/svg">
<circle cx="14.5" cy="14.5" r="14.5" fill="#D9D9D9"/>
<path d="M14.5004 16.1113C17.1274 16.1113 19.2571 13.5557 19.2571 10.4032C19.2571 7.2507 17.1274 4.6951 14.5004 4.6951C11.8733 4.6951 9.74361 7.2507 9.74361 10.4032C9.74361 13.5557 11.8733 16.1113 14.5004 16.1113Z" fill="white"/>
<path d="M23.8232 20.9633C22.967 19.2509 21.3497 17.8238 19.2568 16.9676C18.6859 16.7774 18.02 16.7774 17.5443 17.0628C16.593 17.6336 15.6416 17.919 14.5 17.919C13.3584 17.919 12.407 17.6336 11.4557 17.0628C10.98 16.8725 10.3141 16.7774 9.74326 17.0628C7.65029 17.919 6.03299 19.346 5.17678 21.0584C4.51083 22.2952 5.55732 23.7222 6.98434 23.7222H22.0157C23.4427 23.7222 24.4892 22.2952 23.8232 20.9633Z" fill="white"/>
</svg>
